<?xml version="1.0" encoding="utf-8"?>
<svg viewBox="0 0 500 500" xmlns="http://www.w3.org/2000/svg">
  <g transform="matrix(1, 0, 0, 1, 45.199604, 41.049107)">
    <path d="M 392.533 191.884 L 17.067 191.884 C 7.641 191.884 0 199.525 0 208.95 C 0 218.375 7.641 226.017 17.067 226.017 L 392.534 226.017 C 401.96 226.017 409.601 218.376 409.601 208.95 C 409.601 199.524 401.959 191.884 392.533 191.884 Z" transform="matrix(0.707107, 0.707106, -0.707106, 0.707107, 207.73481, -83.615644)"/>
    <path d="M 392.533 191.884 L 17.067 191.884 C 7.641 191.884 0 199.525 0 208.951 C 0 218.377 7.641 226.018 17.067 226.018 L 392.534 226.018 C 401.96 226.018 409.601 218.377 409.601 208.951 C 409.601 199.525 401.959 191.884 392.533 191.884 Z" transform="matrix(0.707107, -0.707106, 0.707106, 0.707107, -87.76599, 206.015974)"/>
  </g>
</svg>