<svg xmlns="http://www.w3.org/2000/svg" xmlns:xlink="http://www.w3.org/1999/xlink"><defs><symbol viewBox="0 0 500 500" id="menu-close">
  <g transform="matrix(1, 0, 0, 1, 45.199604, 41.049107)">
    <path d="M 392.533 191.884 L 17.067 191.884 C 7.641 191.884 0 199.525 0 208.95 C 0 218.375 7.641 226.017 17.067 226.017 L 392.534 226.017 C 401.96 226.017 409.601 218.376 409.601 208.95 C 409.601 199.524 401.959 191.884 392.533 191.884 Z" transform="matrix(0.707107, 0.707106, -0.707106, 0.707107, 207.73481, -83.615644)" />
    <path d="M 392.533 191.884 L 17.067 191.884 C 7.641 191.884 0 199.525 0 208.951 C 0 218.377 7.641 226.018 17.067 226.018 L 392.534 226.018 C 401.96 226.018 409.601 218.377 409.601 208.951 C 409.601 199.525 401.959 191.884 392.533 191.884 Z" transform="matrix(0.707107, -0.707106, 0.707106, 0.707107, -87.76599, 206.015974)" />
  </g>
</symbol><symbol viewBox="0 0 500 500" id="menu-open">
  <g transform="matrix(1, 0, 0, 1, 45.199493, 42.932999)">
    <path d="M 392.533 70 L 17.067 70 C 7.641 70 0 77.641 0 87.066 C 0 96.491 7.641 104.133 17.067 104.133 L 392.534 104.133 C 401.96 104.133 409.601 96.492 409.601 87.066 C 409.601 77.64 401.959 70 392.533 70 Z" />
    <path d="M392.533,187.733H17.067C7.641,187.733,0,195.374,0,204.8s7.641,17.067,17.067,17.067h375.467 c9.426,0,17.067-7.641,17.067-17.067S401.959,187.733,392.533,187.733z" />
    <path d="M 392.533 310 L 17.067 310 C 7.641 310 0 317.641 0 327.067 C 0 336.493 7.641 344.134 17.067 344.134 L 392.534 344.134 C 401.96 344.134 409.601 336.493 409.601 327.067 C 409.601 317.641 401.959 310 392.533 310 Z" />
  </g>
</symbol></defs></svg>