<?xml version="1.0" standalone="no"?>
<!DOCTYPE svg PUBLIC "-//W3C//DTD SVG 20010904//EN"
 "http://www.w3.org/TR/2001/REC-SVG-20010904/DTD/svg10.dtd">
<svg version="1.0" xmlns="http://www.w3.org/2000/svg"
 width="1120.000000pt" height="1120.000000pt" viewBox="0 0 1120.000000 1120.000000"
 preserveAspectRatio="xMidYMid meet">
<metadata>
Created by potrace 1.11, written by Peter Selinger 2001-2013
</metadata>
<g transform="translate(0.000000,1120.000000) scale(0.100000,-0.100000)"
fill="#000000" stroke="none">
<path d="M1618 10155 c-2 -1 -46 -6 -98 -9 -91 -6 -112 -8 -172 -21 -16 -3
-38 -7 -50 -9 -71 -12 -194 -51 -288 -89 -14 -6 -27 -11 -30 -12 -18 -5 -69
-32 -91 -47 -14 -9 -28 -15 -31 -12 -3 2 -11 -2 -18 -11 -7 -8 -16 -15 -21
-15 -13 0 -131 -79 -215 -145 -98 -77 -304 -303 -304 -335 0 -6 -4 -8 -10 -5
-5 3 -10 2 -10 -4 0 -6 -15 -34 -33 -63 -41 -64 -129 -238 -120 -238 3 0 1 -6
-5 -12 -28 -36 -92 -277 -110 -418 -9 -73 -9 -6109 0 -6180 17 -129 20 -145
29 -162 5 -10 8 -18 5 -18 -2 0 0 -16 6 -36 5 -20 11 -44 13 -53 5 -23 44
-129 66 -178 50 -112 65 -142 101 -199 21 -34 38 -66 38 -72 0 -6 4 -12 9 -14
5 -2 33 -36 64 -77 83 -111 171 -199 298 -299 55 -43 242 -162 254 -162 2 0
37 -15 77 -34 78 -36 118 -51 131 -48 4 1 7 -3 7 -9 0 -6 7 -9 15 -5 8 3 15 2
15 -3 0 -4 6 -8 13 -9 14 -1 52 -10 52 -12 0 -1 7 -3 15 -5 213 -44 254 -49
420 -49 166 0 259 11 395 46 44 11 86 21 93 21 6 0 12 3 12 7 0 4 6 7 14 7 20
0 200 74 207 86 3 5 10 9 15 9 10 0 58 24 114 57 19 12 55 32 80 46 25 14 68
39 95 56 28 16 59 34 70 39 11 6 27 14 35 20 27 18 145 86 160 93 8 4 33 18
55 32 22 13 51 30 65 37 14 7 49 27 77 46 29 18 53 29 53 25 0 -4 4 -3 8 3 8
13 199 124 213 124 5 0 9 5 9 10 0 6 6 10 14 10 8 0 16 3 18 8 2 4 19 15 38
24 40 20 113 61 120 68 6 6 50 31 110 62 25 13 47 25 50 29 3 3 64 39 135 79
72 41 132 78 133 82 2 5 8 8 13 8 5 0 69 34 142 76 73 42 152 88 177 102 25
14 56 32 70 42 14 9 32 20 40 23 8 4 36 19 62 34 170 100 212 123 219 123 5 0
9 5 9 12 0 6 3 8 6 5 4 -4 19 2 33 12 25 18 108 67 296 174 50 29 99 57 110
64 11 7 27 15 35 19 8 4 27 16 43 26 15 11 27 16 27 11 0 -4 4 -3 8 2 6 10 26
23 122 78 85 49 79 48 129 19 25 -14 63 -36 83 -49 21 -13 42 -23 48 -23 5 0
10 -4 10 -10 0 -5 4 -10 10 -10 5 0 49 -23 97 -52 95 -56 173 -100 213 -120
14 -7 27 -15 30 -18 3 -3 15 -11 28 -17 12 -7 32 -19 45 -25 12 -7 24 -15 27
-18 3 -3 28 -16 55 -30 28 -14 52 -28 55 -31 3 -3 25 -16 50 -30 25 -13 47
-27 48 -31 2 -5 7 -8 12 -8 4 0 95 -50 201 -112 107 -61 204 -116 216 -122 13
-6 23 -14 23 -18 0 -5 9 -8 20 -8 11 0 20 -4 20 -10 0 -5 4 -10 9 -10 5 0 67
-34 136 -75 70 -41 129 -75 131 -75 2 0 27 -15 56 -33 29 -19 61 -36 70 -40
10 -3 43 -22 73 -42 31 -19 57 -35 60 -35 3 0 34 -18 70 -40 36 -22 70 -40 75
-40 6 0 10 -4 10 -10 0 -5 6 -10 13 -10 8 0 42 -18 75 -40 34 -22 62 -37 62
-34 0 4 7 1 15 -6 22 -18 167 -100 177 -100 4 0 8 -4 8 -10 0 -5 6 -10 14 -10
7 0 19 -7 26 -15 7 -8 16 -12 21 -9 5 3 9 2 9 -3 0 -4 13 -14 30 -21 16 -7 45
-24 65 -37 19 -14 35 -22 35 -19 0 3 12 -4 26 -15 15 -12 33 -21 40 -21 8 0
14 -4 14 -10 0 -5 4 -10 9 -10 5 0 55 -27 111 -60 56 -33 106 -60 111 -60 5 0
9 -4 9 -10 0 -5 9 -10 20 -10 11 0 20 -3 20 -8 0 -4 21 -18 48 -32 26 -13 49
-27 52 -30 3 -3 23 -14 45 -25 22 -10 48 -26 58 -34 9 -8 17 -11 17 -6 0 4 6
3 13 -3 22 -19 200 -87 256 -98 14 -3 29 -8 35 -12 6 -3 17 -7 26 -8 8 -1 52
-9 98 -18 45 -8 86 -15 90 -15 4 1 9 0 12 -1 8 -4 101 -9 180 -9 104 -2 233 9
300 24 14 4 39 9 55 11 52 9 187 50 260 79 82 33 252 121 272 141 8 8 19 14
24 14 5 0 15 4 22 10 7 5 52 41 100 80 140 113 225 204 326 350 132 192 238
450 266 650 3 25 9 61 12 80 8 53 12 136 12 230 0 47 0 93 0 103 1 9 1 24 1
32 1 8 1 68 0 133 0 64 1 161 2 215 2 53 1 97 -2 97 -5 0 -3 247 3 292 2 16 1
28 -2 28 -3 0 -5 50 -4 110 2 61 2 166 2 235 0 69 0 132 1 140 0 8 0 22 0 30
1 8 1 68 0 133 0 64 1 161 2 215 2 53 1 97 -2 97 -5 0 -3 247 3 293 2 15 1 27
-2 27 -3 0 -5 50 -4 110 2 61 2 166 2 235 0 69 0 132 1 140 0 8 0 22 0 30 1 8
1 68 0 133 0 64 1 161 2 215 2 53 1 97 -2 97 -5 0 -3 247 3 293 2 15 1 27 -2
27 -3 0 -5 50 -4 110 2 61 2 166 2 235 0 69 0 132 1 140 0 8 0 22 0 30 1 8 1
68 0 133 0 64 1 161 2 215 2 53 1 97 -2 97 -5 0 -3 247 3 293 2 15 1 27 -2 27
-3 0 -5 50 -4 110 2 61 2 166 2 235 0 124 0 143 2 168 0 6 0 50 -1 97 -1 47
-1 141 0 210 1 69 1 127 0 130 0 3 -2 61 -5 130 -2 69 -6 139 -9 157 -11 72
-27 151 -42 203 -8 30 -16 60 -17 65 -2 6 -5 15 -8 20 -7 12 -18 56 -18 69 1
5 -3 12 -8 15 -5 3 -17 29 -28 56 -36 96 -136 268 -212 363 -60 76 -213 236
-213 223 0 -3 -6 1 -13 9 -15 19 -103 90 -111 90 -3 0 -14 7 -23 16 -58 51
-247 149 -373 194 -19 6 -44 16 -55 20 -204 80 -579 100 -850 44 -49 -10 -60
-12 -60 -14 0 -2 -8 -4 -75 -20 -24 -6 -50 -16 -57 -22 -7 -6 -13 -8 -13 -5 0
6 -114 -39 -158 -61 -12 -7 -30 -16 -39 -20 -10 -5 -38 -20 -63 -34 -175 -99
-216 -123 -220 -128 -3 -3 -23 -14 -45 -25 -22 -11 -42 -23 -45 -26 -3 -4 -25
-16 -48 -28 -24 -12 -73 -40 -108 -62 -36 -22 -70 -40 -76 -42 -7 -1 -20 -9
-30 -18 -10 -8 -37 -25 -60 -37 -24 -12 -65 -36 -93 -53 -27 -16 -62 -35 -77
-42 -16 -6 -28 -15 -28 -19 0 -4 -4 -8 -9 -8 -12 0 -155 -83 -159 -92 -2 -5
-8 -8 -14 -8 -6 0 -43 -19 -82 -43 -39 -23 -92 -54 -118 -67 -27 -14 -48 -28
-48 -32 0 -5 -4 -8 -9 -8 -8 0 -201 -107 -271 -151 -62 -38 -244 -139 -251
-139 -5 0 -9 -4 -9 -9 0 -5 -8 -11 -17 -14 -10 -4 -38 -18 -63 -33 -112 -66
-161 -94 -165 -94 -2 0 -24 -13 -48 -30 -25 -16 -48 -30 -51 -30 -3 0 -34 -17
-68 -38 -35 -21 -70 -42 -78 -46 -8 -4 -24 -12 -35 -19 -11 -7 -71 -42 -133
-77 -62 -36 -134 -77 -160 -93 -26 -15 -69 -39 -97 -53 -27 -15 -51 -30 -53
-35 -2 -5 -7 -9 -11 -9 -5 0 -75 -38 -156 -85 -82 -47 -151 -81 -154 -76 -3 5
-132 81 -286 169 -154 88 -285 166 -292 171 -7 6 -16 11 -20 11 -4 0 -46 23
-92 50 -46 28 -85 50 -87 50 -2 0 -37 20 -77 45 -41 25 -80 45 -86 45 -6 0
-11 4 -11 9 0 5 -12 14 -27 20 -16 6 -44 21 -63 33 -19 12 -51 31 -72 42 -20
12 -62 36 -95 55 -32 19 -78 45 -103 59 -25 14 -49 28 -55 32 -10 8 -93 54
-132 74 -13 6 -23 14 -23 19 0 4 -4 7 -9 7 -5 0 -128 68 -273 151 -144 84
-317 183 -382 220 -66 38 -123 69 -128 69 -4 0 -8 4 -8 9 0 5 -8 11 -17 14
-10 3 -45 22 -78 41 -33 20 -67 39 -75 43 -8 4 -43 24 -78 45 -34 21 -66 38
-71 38 -5 0 -16 6 -23 13 -7 7 -40 28 -73 46 -62 35 -100 56 -160 91 -39 22
-89 51 -126 72 -13 7 -26 15 -29 18 -9 10 -205 98 -261 119 -51 18 -153 47
-204 57 -99 20 -121 23 -240 30 -49 3 -98 6 -107 8 -9 2 -18 3 -20 1z m50
-1515 c1 -1 5 -3 10 -5 20 -5 49 -19 62 -30 8 -7 40 -26 70 -42 136 -74 294
-167 301 -176 3 -5 9 -8 13 -8 3 1 16 -5 29 -12 26 -16 147 -86 197 -114 19
-11 91 -53 160 -93 69 -40 145 -84 170 -98 25 -13 50 -28 55 -32 6 -4 30 -19
55 -32 89 -49 125 -71 150 -87 14 -9 39 -23 55 -31 17 -8 32 -17 35 -20 3 -3
25 -16 50 -29 25 -13 52 -30 61 -38 9 -7 19 -10 22 -6 4 3 7 1 7 -5 0 -7 4
-12 10 -12 5 0 38 -17 72 -38 35 -21 70 -41 78 -45 8 -4 33 -18 55 -32 22 -14
54 -32 70 -40 17 -9 44 -24 60 -35 17 -10 49 -29 73 -41 23 -13 42 -26 42 -31
0 -4 3 -7 8 -6 9 3 146 -73 150 -84 2 -4 8 -8 13 -8 4 0 46 -22 93 -50 47 -27
90 -50 97 -50 8 0 8 -4 -1 -15 -7 -8 -19 -15 -26 -15 -8 0 -14 -5 -14 -12 0
-6 -3 -8 -7 -5 -3 4 -13 1 -22 -7 -9 -7 -41 -26 -71 -42 -30 -16 -57 -32 -60
-35 -3 -3 -30 -19 -60 -36 -188 -103 -354 -211 -427 -280 -23 -21 -60 -55 -83
-76 -46 -41 -210 -242 -210 -256 0 -5 -7 -17 -16 -25 -23 -23 -126 -229 -156
-311 -32 -89 -65 -207 -73 -265 -4 -24 -9 -48 -11 -51 -8 -13 -18 -154 -18
-254 0 -87 6 -172 19 -265 3 -27 34 -167 40 -188 3 -7 5 -14 5 -17 1 -5 47
-131 57 -155 3 -8 5 -18 5 -22 -1 -5 3 -8 10 -8 6 0 9 -3 6 -6 -7 -7 70 -157
120 -233 58 -90 141 -190 222 -271 79 -80 201 -180 218 -180 6 0 12 -4 14 -9
4 -11 184 -121 198 -121 6 0 10 -4 10 -10 0 -5 5 -10 10 -10 6 0 27 -11 48
-23 20 -13 57 -35 82 -49 25 -14 63 -36 85 -48 22 -13 52 -30 67 -37 15 -8 30
-18 33 -23 5 -8 -138 -100 -156 -100 -4 0 -14 -6 -21 -12 -14 -13 -18 -16 -98
-59 -25 -13 -47 -26 -50 -29 -5 -5 -22 -15 -99 -58 -25 -13 -58 -33 -73 -43
-14 -11 -28 -19 -31 -19 -10 0 -132 -74 -139 -85 -4 -5 -8 -6 -8 -1 0 5 -8 2
-17 -6 -10 -8 -49 -32 -88 -53 -38 -21 -78 -45 -89 -54 -10 -9 -21 -16 -25
-15 -3 1 -23 -10 -43 -22 -21 -13 -40 -24 -43 -24 -3 0 -34 -17 -68 -38 -34
-22 -82 -50 -107 -64 -25 -14 -61 -35 -80 -46 -53 -29 -263 -151 -280 -162 -8
-5 -37 -21 -65 -36 -27 -15 -61 -35 -74 -45 -13 -11 -30 -19 -37 -19 -8 0 -14
-4 -14 -9 0 -5 -8 -11 -17 -15 -10 -3 -31 -13 -48 -23 -16 -10 -73 -43 -125
-73 -52 -30 -108 -63 -125 -72 -16 -10 -49 -28 -72 -40 -24 -12 -43 -26 -43
-30 0 -4 -4 -8 -9 -8 -5 0 -44 -20 -87 -45 -99 -57 -147 -59 -198 -9 -18 17
-34 38 -35 45 -6 47 -5 141 1 145 5 3 5 11 1 17 -10 16 -11 218 -1 239 4 9 5
19 0 22 -9 5 -9 123 1 132 3 4 3 12 0 18 -10 15 -10 347 0 353 4 2 4 10 0 16
-11 19 -10 227 2 227 7 0 7 3 0 8 -11 8 -14 376 -3 388 4 4 4 12 1 18 -12 18
-10 220 2 228 6 5 6 8 0 8 -11 0 -14 464 -3 476 4 4 4 12 1 18 -10 15 -11 308
-1 328 4 9 5 19 0 22 -9 5 -9 123 1 132 3 4 3 12 0 18 -10 15 -10 437 0 443 4
2 4 10 0 16 -10 16 -11 308 -1 329 4 9 5 19 0 22 -9 5 -9 123 1 132 3 4 3 12
0 18 -10 15 -10 437 0 443 4 2 4 10 0 16 -10 16 -11 308 -1 328 4 9 4 19 0 23
-9 10 -9 177 0 183 5 2 5 10 1 16 -11 19 -10 227 2 227 7 0 7 3 0 8 -11 8 -14
376 -3 388 4 4 4 12 1 18 -12 18 -10 220 2 228 7 5 7 8 0 8 -16 0 -10 201 6
236 19 38 70 72 106 68 15 -1 29 -3 31 -4z m7757 0 c0 -1 8 -3 18 -5 21 -4 66
-53 69 -75 0 -8 2 -20 2 -27 1 -6 4 -15 8 -18 4 -4 3 -17 -2 -30 -5 -13 -6
-25 -3 -29 7 -7 10 -96 3 -96 -7 0 -4 -89 3 -97 4 -3 2 -13 -3 -23 -5 -10 -7
-20 -3 -24 9 -9 10 -58 1 -83 -5 -14 -3 -23 3 -23 7 0 7 -6 0 -17 -6 -11 -6
-24 0 -35 5 -9 6 -19 1 -22 -6 -3 -8 -61 -2 -61 1 0 2 -21 3 -48 1 -26 0 -47
-3 -47 -7 0 -4 -89 3 -97 4 -3 2 -13 -3 -23 -5 -10 -7 -20 -3 -24 9 -9 10 -58
1 -83 -5 -14 -3 -23 3 -23 7 0 7 -6 0 -17 -6 -11 -6 -24 0 -35 5 -9 6 -19 1
-22 -6 -3 -8 -61 -2 -61 1 0 2 -21 3 -48 1 -26 -1 -47 -5 -47 -4 0 -4 -10 1
-22 5 -13 5 -33 0 -45 -5 -15 -5 -23 2 -23 7 0 7 -6 0 -17 -6 -11 -6 -24 0
-35 5 -9 6 -19 1 -22 -6 -3 -8 -61 -2 -61 1 0 2 -21 3 -48 1 -26 0 -47 -3 -47
-7 0 -4 -89 3 -97 4 -3 2 -13 -3 -23 -5 -10 -7 -20 -3 -24 9 -9 10 -58 1 -83
-5 -14 -3 -23 3 -23 7 0 7 -6 0 -17 -6 -11 -6 -24 0 -35 5 -9 6 -19 1 -22 -6
-3 -8 -61 -2 -61 1 0 2 -21 3 -48 1 -26 0 -47 -3 -47 -7 0 -4 -89 3 -97 4 -3
2 -13 -3 -23 -5 -10 -7 -20 -3 -24 9 -9 10 -58 1 -83 -5 -14 -3 -23 3 -23 7 0
7 -6 0 -17 -6 -11 -6 -24 0 -35 5 -9 6 -19 1 -22 -6 -3 -8 -61 -2 -61 1 0 2
-21 3 -48 1 -26 -1 -47 -5 -47 -4 0 -4 -10 1 -22 5 -13 5 -33 0 -45 -5 -15 -5
-23 2 -23 7 0 7 -6 0 -17 -6 -11 -6 -24 0 -35 5 -9 6 -19 1 -22 -6 -3 -8 -61
-2 -61 1 0 2 -21 3 -48 1 -26 0 -47 -3 -47 -7 0 -4 -89 3 -97 4 -3 2 -13 -3
-23 -5 -10 -7 -20 -3 -24 9 -9 10 -58 1 -83 -5 -14 -3 -23 3 -23 7 0 7 -6 0
-17 -6 -11 -6 -24 0 -35 5 -9 6 -19 1 -22 -6 -3 -8 -61 -2 -61 1 0 2 -21 3
-48 1 -26 0 -47 -3 -47 -7 0 -4 -89 3 -97 4 -3 2 -13 -3 -23 -5 -10 -7 -20 -3
-24 9 -9 10 -58 1 -83 -5 -14 -3 -23 3 -23 7 0 7 -6 0 -17 -6 -11 -6 -24 0
-35 5 -9 6 -19 1 -22 -6 -3 -8 -61 -2 -61 1 0 2 -21 3 -48 1 -26 -1 -47 -5
-47 -4 0 -4 -10 1 -22 5 -13 5 -33 0 -45 -5 -15 -5 -23 2 -23 7 0 7 -6 0 -17
-6 -11 -6 -24 0 -35 5 -9 6 -19 1 -22 -6 -3 -8 -61 -2 -61 1 0 2 -21 3 -48 1
-26 0 -47 -3 -47 -7 0 -4 -89 3 -97 4 -3 2 -13 -3 -23 -5 -10 -7 -20 -3 -24 9
-9 10 -58 1 -83 -5 -14 -3 -23 3 -23 7 0 7 -6 0 -17 -6 -11 -6 -24 0 -35 5 -9
6 -19 1 -22 -6 -3 -8 -61 -2 -61 1 0 2 -21 3 -48 1 -26 0 -47 -3 -47 -7 0 -4
-89 3 -97 4 -3 2 -13 -3 -23 -5 -10 -7 -20 -3 -24 9 -9 10 -58 1 -83 -5 -14
-3 -23 3 -23 7 0 7 -6 0 -17 -6 -11 -6 -24 0 -35 5 -9 6 -19 1 -22 -6 -3 -8
-61 -2 -61 1 0 2 -21 3 -48 1 -26 -1 -47 -5 -47 -4 0 -4 -10 1 -22 5 -13 5
-33 0 -45 -5 -15 -5 -23 2 -23 7 0 7 -6 0 -17 -6 -11 -6 -24 0 -35 5 -9 6 -19
1 -22 -6 -3 -8 -61 -2 -61 1 0 2 -21 3 -48 1 -26 0 -47 -3 -47 -7 0 -4 -89 3
-97 4 -3 2 -13 -3 -23 -5 -10 -7 -20 -3 -24 9 -9 10 -58 1 -83 -5 -14 -3 -23
3 -23 7 0 7 -6 0 -17 -6 -11 -6 -24 0 -35 5 -9 6 -19 1 -22 -6 -3 -8 -61 -2
-61 1 0 2 -21 3 -48 1 -26 -1 -47 -4 -47 -3 0 -4 -13 -1 -29 10 -68 -58 -136
-131 -130 -31 3 -96 34 -149 70 -14 11 -31 19 -37 19 -6 0 -11 5 -11 10 0 6
-4 10 -10 10 -5 0 -63 32 -129 70 -66 39 -125 70 -131 70 -5 0 -10 5 -10 10 0
6 -4 10 -10 10 -5 0 -39 18 -75 40 -36 22 -70 40 -75 40 -6 0 -10 5 -10 10 0
6 -5 10 -10 10 -6 0 -48 23 -94 50 -46 28 -86 50 -89 50 -3 0 -23 12 -44 26
-21 14 -47 30 -58 35 -11 6 -29 15 -40 22 -11 7 -78 45 -150 86 -71 41 -131
78 -133 83 -2 4 -8 8 -12 8 -8 0 -129 68 -308 172 -26 16 -58 34 -72 40 -14 7
-33 19 -42 27 -9 8 -25 16 -35 17 -10 2 -19 8 -21 13 -2 6 -10 11 -17 11 -7 0
-15 3 -17 8 -3 7 -66 43 -115 66 -13 6 -23 14 -23 19 0 4 -4 7 -9 7 -5 0 -47
23 -94 50 -47 28 -90 50 -95 50 -6 0 -12 4 -14 8 -1 5 -49 35 -106 67 -56 31
-101 59 -100 60 3 3 101 61 173 103 22 12 48 25 58 29 9 3 17 9 17 14 0 5 4 9
9 9 14 0 304 171 321 190 3 3 23 18 45 35 91 67 285 261 285 285 0 4 4 10 8
12 15 6 172 249 172 266 0 4 11 29 24 55 14 26 32 71 42 100 9 29 21 58 27 65
5 6 6 12 2 12 -4 0 -2 6 4 13 6 8 8 16 5 20 -3 3 0 15 6 27 7 13 13 32 15 44
2 11 10 57 19 101 27 140 37 335 21 454 -16 129 -15 122 -40 226 -20 85 -21
86 -27 105 -3 8 -14 38 -24 65 -9 28 -25 69 -35 93 -10 23 -18 43 -18 45 1 1
-8 18 -19 37 -11 19 -33 58 -48 85 -34 64 -128 199 -173 249 -92 102 -233 234
-280 260 -9 5 -21 14 -28 20 -33 30 -41 34 -47 29 -3 -4 -6 -1 -6 5 0 7 -7 12
-15 12 -8 0 -15 5 -15 10 0 6 -6 10 -14 10 -7 0 -19 7 -26 15 -7 8 -16 13 -20
10 -4 -3 -13 1 -19 9 -6 7 -29 21 -51 31 -22 10 -40 22 -40 27 0 4 -4 8 -9 8
-5 0 -49 23 -98 51 -148 87 -157 92 -180 104 -21 11 -22 13 -5 26 9 8 35 24
57 36 22 11 54 29 72 40 17 10 82 47 145 82 62 36 132 77 155 93 23 15 45 28
48 28 4 0 33 15 64 34 31 19 72 43 91 54 19 11 76 43 125 72 50 29 110 64 135
78 53 29 188 109 210 123 8 5 27 14 43 20 15 6 27 15 27 19 0 5 10 12 23 16
12 4 46 22 75 40 29 19 54 34 56 34 3 0 54 29 115 65 60 36 114 65 120 65 5 0
11 4 13 8 3 7 82 54 213 127 22 12 65 37 95 55 62 37 104 61 170 98 25 14 56
32 70 41 14 10 36 22 50 29 14 7 41 22 60 34 44 27 99 47 119 43 9 -2 16 -4
16 -5z m-3855 -2241 c3 -3 25 -17 50 -31 25 -14 79 -45 120 -70 41 -24 82 -47
90 -51 8 -4 29 -16 45 -27 17 -10 41 -25 55 -33 53 -29 76 -42 93 -56 9 -8 17
-10 17 -5 0 5 4 4 8 -1 8 -13 201 -125 213 -125 5 0 9 -4 9 -9 0 -5 8 -11 18
-14 17 -6 88 -45 107 -60 9 -7 153 -90 265 -152 19 -11 37 -22 40 -25 3 -3 14
-10 25 -16 53 -29 70 -130 29 -175 -15 -16 -89 -62 -264 -161 -103 -59 -126
-73 -131 -81 -3 -5 -8 -8 -10 -6 -3 2 -104 -54 -194 -108 -11 -7 -29 -17 -40
-23 -11 -5 -42 -24 -70 -40 -27 -16 -61 -35 -75 -42 -14 -7 -27 -16 -30 -20
-5 -6 -92 -55 -147 -82 -13 -6 -23 -14 -23 -18 0 -5 -4 -8 -9 -8 -8 0 -136
-71 -217 -121 l-31 -19 -152 90 c-84 50 -157 90 -162 90 -5 0 -9 3 -9 8 0 4
-10 12 -23 18 -12 6 -140 80 -284 165 -145 85 -318 186 -385 226 -68 40 -139
81 -158 92 -45 24 -68 50 -73 81 -3 14 -6 30 -8 35 -1 6 4 26 13 46 16 36 59
66 243 169 33 19 62 37 63 42 2 4 8 8 14 8 5 0 22 9 36 19 15 10 29 18 32 18
3 0 16 6 30 15 42 26 413 240 437 252 13 6 23 14 23 19 0 4 4 7 10 7 5 0 50
24 100 53 50 28 116 67 148 85 31 18 65 36 75 39 9 3 17 10 17 15 0 5 5 6 10
3 6 -3 10 -1 10 4 0 11 37 -5 50 -20z"/>
</g>
</svg>
